<?xml version="1.0" encoding="utf-8" standalone="yes"?>
<!DOCTYPE svg PUBLIC "-//W3C//DTD SVG 1.1//EN" "http://www.w3.org/Graphics/SVG/1.1/DTD/svg11.dtd">
<svg width="1128" height="612" viewBox="0 0 1128 612" style="fill:none;stroke:none;fill-rule:evenodd;clip-rule:evenodd;stroke-linecap:round;stroke-linejoin:round;stroke-miterlimit:1.5;" version="1.1" xmlns="http://www.w3.org/2000/svg" xmlns:xlink="http://www.w3.org/1999/xlink"><style class="text-font-style fontImports" data-font-family="Roboto">@import url('https://fonts.googleapis.com/css2?family=Roboto:wght@400;700&amp;display=block');</style><g id="items" style="isolation: isolate"><g id="blend" style="mix-blend-mode: normal"><g id="g-root-cp_6_g-6_me7jlzxmpcsm-fill" data-item-order="-557270" transform="translate(875, 110)"><g id="cp_6_g-6_me7jlzxmpcsm-fill" stroke="none" fill="#f79438"><g><path d="M 136.5037 52C 138.1093 48.3252 139 44.2666 139 40C 139 35.7334 138.1093 31.6748 136.5037 28L 157 28L 157 27C 157 25.8954 157.895 25 159 25L 163 25L 163 55L 159 55C 157.895 55 157 54.1046 157 53L 157 52L 136.5037 52ZM 81.4963 52L 61 52L 61 53C 61 54.1046 60.1046 55 59 55L 55 55L 55 25L 59 25C 60.1046 25 61 25.8954 61 27L 61 28L 81.4963 28C 79.8907 31.6748 79 35.7334 79 40C 79 44.2666 79.8907 48.3252 81.4963 52Z"></path></g></g><g id="cp_6_g-6_me7jlzxmpcsm-fill" stroke="none" fill="#f79438"><g><path d="M 10 130L 10 126C 10 124.8954 10.8954 124 12 124L 13 124L 13 76L 12 76C 10.8954 76 10.000002 75.1046 10.000002 74L 10.000003 70L 40 70.000001L 40 74C 40 75.1046 39.1046 76 38 76L 37 76L 37 124L 38 124C 39.1046 124 40 124.8954 40 126L 40 130L 10 130Z"></path></g></g><g id="cp_6_g-6_me7jlzxmpcsm-fill" stroke="none" fill="#f79438"><g><path d="M 13 52C 13 38.7452 23.7452 28 37 28L 49 28L 49 27C 49 25.8954 49.8954 25 51 25L 55 25L 55 55L 51 55C 49.8954 55 49 54.1046 49 53L 49 52L 41 52C 38.7909 52 37 53.7909 37 56L 37 64L 38 64C 39.1046 64 40 64.8954 40 66L 40 70L 10 70L 10 66C 10 64.8954 10.8954 64 12 64L 13 64L 13 52Z"></path></g></g><g id="cp_6_g-6_me7jlzxmpcsm-fill" stroke="none" fill="#f79438"><g><path d="M 139 40C 139 56.5685 125.5685 70 109 70C 92.4315 70 79 56.5685 79 40C 79 23.4315 92.4315 10 109 10C 125.5685 10 139 23.4315 139 40Z"></path></g></g></g><g id="g-root-cp_5_g-5_hye1hjxmpdkz-fill" data-item-order="-557266" transform="translate(707, 230)"><g id="cp_5_g-5_hye1hjxmpdkz-fill" stroke="none" fill="#ffe711"><g><path d="M 136.5037 112C 138.1093 108.3252 139 104.2666 139 100C 139 95.7334 138.1093 91.6748 136.5037 88L 157 88L 157 87C 157 85.8954 157.895 85 159 85L 163 85L 163 115L 159 115C 157.895 115 157 114.1046 157 113L 157 112L 136.5037 112ZM 81.4963 112L 61 112L 61 113C 61 114.1046 60.1046 115 59 115L 55 115L 55 85L 59 85C 60.1046 85 61 85.8954 61 87L 61 88L 81.4963 88C 79.8907 91.6748 79 95.7334 79 100C 79 104.2666 79.8907 108.3252 81.4963 112Z"></path></g></g><g id="cp_5_g-5_hye1hjxmpdkz-fill" stroke="none" fill="#ffe711"><g><path d="M 10 70L 10 66C 10 64.8954 10.8954 64 12 64L 13 64L 13 46L 12 46C 10.8954 46 10.000001 45.1046 10.000001 44L 10.000001 40L 40 40.000001L 40 44C 40 45.1046 39.1046 46 38 46L 37 46L 37 64L 38 64C 39.1046 64 40 64.8954 40 66L 40 70L 10 70Z"></path></g></g><g id="cp_5_g-5_hye1hjxmpdkz-fill" stroke="none" fill="#ffe711"><g><path d="M 178 70L 178 66C 178 64.8954 178.8954 64 180 64L 181 64L 181 16L 180 16C 178.8954 16 178.000002 15.1046 178.000002 14L 178.000003 10L 208 10.000001L 208 14C 208 15.1046 207.1046 16 206 16L 205 16L 205 64L 206 64C 207.1046 64 208 64.8954 208 66L 208 70L 178 70Z"></path></g></g><g id="cp_5_g-5_hye1hjxmpdkz-fill" stroke="none" fill="#ffe711"><g><path d="M 13 88C 13 101.2548 23.7452 112 37 112L 49 112L 49 113C 49 114.1046 49.8954 115 51 115L 55 115L 55 85L 51 85C 49.8954 85 49 85.8954 49 87L 49 88L 41 88C 38.7909 88 37 86.2091 37 84L 37 76L 38 76C 39.1046 76 40 75.1046 40 74L 40 70L 10 70.000005L 10.000001 74C 10.000001 75.1046 10.8954 76 12 76L 13 76L 13 88Z"></path></g></g><g id="cp_5_g-5_hye1hjxmpdkz-fill" stroke="none" fill="#ffe711"><g><path d="M 205 88C 205 101.2548 194.2548 112 181 112L 169 112L 169 113C 169 114.1046 168.1046 115 167 115L 163 115L 163.000007 85L 167 85C 168.1046 85 169 85.8954 169 87L 169 88L 177 88C 179.2091 88 181 86.2091 181 84L 181 76L 180 76C 178.8954 76 178 75.1046 178 74L 178 70L 208 70.000005L 208 74C 208 75.1046 207.1046 76 206 76L 205 76L 205 88Z"></path></g></g><g id="cp_5_g-5_hye1hjxmpdkz-fill" stroke="none" fill="#ffe711"><g><path d="M 139 100C 139 116.5685 125.5685 130 109 130C 92.4315 130 79 116.5685 79 100C 79 83.4315 92.4315 70 109 70C 125.5685 70 139 83.4315 139 100Z"></path></g></g></g><g id="g-root-cp_4_g-4_dikjd3xmpede-fill" data-item-order="-557262" transform="translate(539, 170)"><g id="cp_4_g-4_dikjd3xmpede-fill" stroke="none" fill="#a6da37"><g><path d="M 136.5037 52C 138.1093 48.3252 139 44.2666 139 40C 139 35.7334 138.1093 31.6748 136.5037 28L 157 28L 157 27C 157 25.8954 157.895 25 159 25L 163 25L 163 55L 159 55C 157.895 55 157 54.1046 157 53L 157 52L 136.5037 52ZM 81.4963 52L 61 52L 61 53C 61 54.1046 60.1046 55 59 55L 55 55L 55 25L 59 25C 60.1046 25 61 25.8954 61 27L 61 28L 81.4963 28C 79.8907 31.6748 79 35.7334 79 40C 79 44.2666 79.8907 48.3252 81.4963 52Z"></path></g></g><g id="cp_4_g-4_dikjd3xmpede-fill" stroke="none" fill="#a6da37"><g><path d="M 178 100L 178 96C 178 94.8954 178.8954 94 180 94L 181 94L 181 76L 180 76C 178.8954 76 178.000001 75.1046 178.000001 74L 178.000001 70L 208 70.000001L 208 74C 208 75.1046 207.1046 76 206 76L 205 76L 205 94L 206 94C 207.1046 94 208 94.8954 208 96L 208 100L 178 100Z"></path></g></g><g id="cp_4_g-4_dikjd3xmpede-fill" stroke="none" fill="#a6da37"><g><path d="M 13 52C 13 38.7452 23.7452 28 37 28L 49 28L 49 27C 49 25.8954 49.8954 25 51 25L 55 25L 55 55L 51 55C 49.8954 55 49 54.1046 49 53L 49 52L 41 52C 38.7909 52 37 53.7909 37 56L 37 64L 38 64C 39.1046 64 40 64.8954 40 66L 40 70L 10 70L 10 66C 10 64.8954 10.8954 64 12 64L 13 64L 13 52Z"></path></g></g><g id="cp_4_g-4_dikjd3xmpede-fill" stroke="none" fill="#a6da37"><g><path d="M 205 52C 205 38.7452 194.2548 28 181 28L 169 28L 169 27C 169 25.8954 168.1046 25 167 25L 163 25L 163.000001 55L 167 55C 168.1046 55 169 54.1046 169 53L 169 52L 177 52C 179.2091 52 181 53.7909 181 56L 181 64L 180 64C 178.8954 64 178 64.8954 178 66L 178 70L 208 70L 208 66C 208 64.8954 207.1046 64 206 64L 205 64L 205 52Z"></path></g></g><g id="cp_4_g-4_dikjd3xmpede-fill" stroke="none" fill="#a6da37"><g><path d="M 139 40C 139 56.5685 125.5685 70 109 70C 92.4315 70 79 56.5685 79 40C 79 23.4315 92.4315 10 109 10C 125.5685 10 139 23.4315 139 40Z"></path></g></g></g><g id="g-root-cp_3_g-3_93dibrxmpc00-fill" data-item-order="-557258" transform="translate(371, 200)"><g id="cp_3_g-3_93dibrxmpc00-fill" stroke="none" fill="#43dd93"><g><path d="M 136.5037 82C 138.1093 78.3252 139 74.2666 139 70C 139 65.7334 138.1093 61.6748 136.5037 58L 157 58L 157 57C 157 55.8954 157.895 55 159 55L 163 55L 163 85L 159 85C 157.895 85 157 84.1046 157 83L 157 82L 136.5037 82ZM 81.4963 82L 61 82L 61 83C 61 84.1046 60.1046 85 59 85L 55 85L 55 55L 59 55C 60.1046 55 61 55.8954 61 57L 61 58L 81.4963 58C 79.8907 61.6748 79 65.7334 79 70C 79 74.2666 79.8907 78.3252 81.4963 82Z"></path></g></g><g id="cp_3_g-3_93dibrxmpc00-fill" stroke="none" fill="#43dd93"><g><path d="M 10 40L 10 36C 10 34.8954 10.8954 34 12 34L 13 34L 13 16L 12 16C 10.8954 16 10.000001 15.1046 10.000001 14L 10.000001 10L 40 10.000001L 40 14C 40 15.1046 39.1046 16 38 16L 37 16L 37 34L 38 34C 39.1046 34 40 34.8954 40 36L 40 40L 10 40Z"></path></g></g><g id="cp_3_g-3_93dibrxmpc00-fill" stroke="none" fill="#43dd93"><g><path d="M 205 58C 205 71.2548 194.2548 82 181 82L 169 82L 169 83C 169 84.1046 168.1046 85 167 85L 163 85L 163.000007 55L 167 55C 168.1046 55 169 55.8954 169 57L 169 58L 177 58C 179.2091 58 181 56.2091 181 54L 181 46L 180 46C 178.8954 46 178 45.1046 178 44L 178 40L 208 40.000005L 208 44C 208 45.1046 207.1046 46 206 46L 205 46L 205 58Z"></path></g></g><g id="cp_3_g-3_93dibrxmpc00-fill" stroke="none" fill="#43dd93"><g><path d="M 13 58C 13 71.2548 23.7452 82 37 82L 49 82L 49 83C 49 84.1046 49.8954 85 51 85L 55 85L 55 55L 51 55C 49.8954 55 49 55.8954 49 57L 49 58L 41 58C 38.7909 58 37 56.2091 37 54L 37 46L 38 46C 39.1046 46 40 45.1046 40 44L 40 40L 10 40.000005L 10.000001 44C 10.000001 45.1046 10.8954 46 12 46L 13 46L 13 58Z"></path></g></g><g id="cp_3_g-3_93dibrxmpc00-fill" stroke="none" fill="#43dd93"><g><path d="M 139 70C 139 86.5685 125.5685 100 109 100C 92.4315 100 79 86.5685 79 70C 79 53.4315 92.4315 40 109 40C 125.5685 40 139 53.4315 139 70Z"></path></g></g></g><g id="g-root-cp_2_g-2_7qi2vxmpcsu-fill" data-item-order="-557254" transform="translate(203, 110)"><g id="cp_2_g-2_7qi2vxmpcsu-fill" stroke="none" fill="#1ac3fb"><g><path d="M 136.5037 52C 138.1093 48.3252 139 44.2666 139 40C 139 35.7334 138.1093 31.6748 136.5037 28L 157 28L 157 27C 157 25.8954 157.895 25 159 25L 163 25L 163 55L 159 55C 157.895 55 157 54.1046 157 53L 157 52L 136.5037 52ZM 81.4963 52L 61 52L 61 53C 61 54.1046 60.1046 55 59 55L 55 55L 55 25L 59 25C 60.1046 25 61 25.8954 61 27L 61 28L 81.4963 28C 79.8907 31.6748 79 35.7334 79 40C 79 44.2666 79.8907 48.3252 81.4963 52Z"></path></g></g><g id="cp_2_g-2_7qi2vxmpcsu-fill" stroke="none" fill="#1ac3fb"><g><path d="M 178 100L 178 96C 178 94.8954 178.8954 94 180 94L 181 94L 181 76L 180 76C 178.8954 76 178.000001 75.1046 178.000001 74L 178.000001 70L 208 70.000001L 208 74C 208 75.1046 207.1046 76 206 76L 205 76L 205 94L 206 94C 207.1046 94 208 94.8954 208 96L 208 100L 178 100Z"></path></g></g><g id="cp_2_g-2_7qi2vxmpcsu-fill" stroke="none" fill="#1ac3fb"><g><path d="M 10 130L 10 126C 10 124.8954 10.8954 124 12 124L 13 124L 13 76L 12 76C 10.8954 76 10.000002 75.1046 10.000002 74L 10.000003 70L 40 70.000001L 40 74C 40 75.1046 39.1046 76 38 76L 37 76L 37 124L 38 124C 39.1046 124 40 124.8954 40 126L 40 130L 10 130Z"></path></g></g><g id="cp_2_g-2_7qi2vxmpcsu-fill" stroke="none" fill="#1ac3fb"><g><path d="M 205 52C 205 38.7452 194.2548 28 181 28L 169 28L 169 27C 169 25.8954 168.1046 25 167 25L 163 25L 163.000001 55L 167 55C 168.1046 55 169 54.1046 169 53L 169 52L 177 52C 179.2091 52 181 53.7909 181 56L 181 64L 180 64C 178.8954 64 178 64.8954 178 66L 178 70L 208 70L 208 66C 208 64.8954 207.1046 64 206 64L 205 64L 205 52Z"></path></g></g><g id="cp_2_g-2_7qi2vxmpcsu-fill" stroke="none" fill="#1ac3fb"><g><path d="M 13 52C 13 38.7452 23.7452 28 37 28L 49 28L 49 27C 49 25.8954 49.8954 25 51 25L 55 25L 55 55L 51 55C 49.8954 55 49 54.1046 49 53L 49 52L 41 52C 38.7909 52 37 53.7909 37 56L 37 64L 38 64C 39.1046 64 40 64.8954 40 66L 40 70L 10 70L 10 66C 10 64.8954 10.8954 64 12 64L 13 64L 13 52Z"></path></g></g><g id="cp_2_g-2_7qi2vxmpcsu-fill" stroke="none" fill="#1ac3fb"><g><path d="M 139 40C 139 56.5685 125.5685 70 109 70C 92.4315 70 79 56.5685 79 40C 79 23.4315 92.4315 10 109 10C 125.5685 10 139 23.4315 139 40Z"></path></g></g></g><g id="g-root-cp_1_g-1_1ut11xjxmpde5-fill" data-item-order="-557250" transform="translate(80, 230)"><g id="cp_1_g-1_1ut11xjxmpde5-fill" stroke="none" fill="#4f91fc"><g><path d="M 133 69.999999L 133 65.999999C 133 64.895399 133.8954 63.999999 135 63.999999L 136 63.999999L 136 15.999999L 135 15.999999C 133.8954 15.999999 133.000002 15.104599 133.000002 13.999999L 133.000003 9.999999L 163 10L 163 13.999999C 163 15.104599 162.1046 15.999999 161 15.999999L 160 15.999999L 160 63.999999L 161 63.999999C 162.1046 63.999999 163 64.895399 163 65.999999L 163 69.999999L 133 69.999999Z"></path></g></g><g id="cp_1_g-1_1ut11xjxmpde5-fill" stroke="none" fill="#4f91fc"><g><path d="M 91.5037 112C 93.1093 108.3252 94 104.2666 94 100C 94 95.7334 93.1093 91.6748 91.5037 88L 112 88L 112 87C 112 85.8954 112.895 85 114 85L 118 85L 118 115L 114 115C 112.895 115 112 114.1046 112 113L 112 112L 91.5037 112ZM 36.4963 112L 16 112L 16 113C 16 114.1046 15.1046 115 14 115L 10 115L 10 85L 14 85C 15.1046 85 16 85.8954 16 87L 16 88L 36.4963 88C 34.8907 91.6748 34 95.7334 34 100C 34 104.2666 34.8907 108.3252 36.4963 112Z"></path></g></g><g id="cp_1_g-1_1ut11xjxmpde5-fill" stroke="none" fill="#4f91fc"><g><path d="M 160 88.000004C 160 101.254804 149.2548 112.000004 136 112.000004L 124 112.000004L 124 113.000004C 124 114.104604 123.1046 115.000004 122 115.000004L 118 115.000004L 118.000007 85.000004L 122 85.000004C 123.1046 85.000004 124 85.895404 124 87.000004L 124 88.000004L 132 88.000004C 134.2091 88.000004 136 86.209104 136 84.000004L 136 76.000004L 135 76.000004C 133.8954 76.000004 133 75.104604 133 74.000004L 133 70.000004L 163 70.000009L 163 74.000004C 163 75.104604 162.1046 76.000004 161 76.000004L 160 76.000004L 160 88.000004Z"></path></g></g><g id="cp_1_g-1_1ut11xjxmpde5-fill" stroke="none" fill="#4f91fc"><g><path d="M 94 100C 94 116.5685 80.5685 130 64 130C 47.4315 130 34 116.5685 34 100C 34 83.4315 47.4315 70 64 70C 80.5685 70 94 83.4315 94 100Z"></path></g></g></g><g id="g-root-ic_star_qs5mh3xmqryk-fill" data-item-order="-1296" transform="translate(788, 302)"><g id="ic_star_qs5mh3xmqryk-fill" stroke="none" fill="#f4f4f4"><g><path d="M 10 10M 31.051001 14.761L 29.101 10.7005C 28.777 10.0495 27.478001 10.06 27.151001 10.7005L 25.202499 14.761L 21.7915 14.761C 21.403872 14.756178 21.053251 14.990432 20.909336 15.350388C 20.765419 15.710343 20.857893 16.121752 21.142 16.3855L 24.390999 19.471001L 22.6045 23.5315C 22.117001 24.3445 23.091999 25.156 23.9035 24.67L 28.127501 22.2325L 32.349998 24.67C 33.163002 25.156 33.974499 24.3445 33.650501 23.5315L 31.862499 19.471001L 35.1115 16.3855C 35.395607 16.121752 35.488083 15.710343 35.344166 15.350388C 35.200249 14.990432 34.849628 14.756178 34.462002 14.761L 31.051001 14.761ZM 23.4655 34.5205C 23.824192 36.746361 25.745422 38.382774 28 38.382774C 30.254576 38.382774 32.175804 36.746361 32.5345 34.5205C 31.1845 34.243 29.26 33.505001 28 31.5655C 26.74 33.505001 24.8155 34.243 23.4655 34.5205ZM 28 26.202999C 25.845675 26.202667 23.79266 27.117662 22.352598 28.719955C 20.912539 30.322248 20.221062 32.460926 20.4505 34.603001C 20.329 36.078999 19.880501 36.817001 19.549 37.175499C 19.362339 37.391582 19.119295 37.551533 18.847 37.637497C 18.824499 37.643501 18.821501 37.645 18.847 37.645C 18.018665 37.653408 17.353949 38.331661 17.362232 39.159996C 17.370516 39.988335 18.048662 40.653152 18.876999 40.644997C 19.591 40.637497 20.765499 40.278999 21.750999 39.214001C 21.9025 39.049 22.048 38.870499 22.185999 38.677002C 23.626913 40.396992 25.75621 41.389675 28.000002 41.387501C 30.243792 41.389675 32.373089 40.396992 33.813999 38.677002C 33.952 38.870499 34.0975 39.049 34.249001 39.214001C 35.234501 40.278999 36.409 40.637497 37.123001 40.643501C 37.951336 40.651653 38.629482 39.986832 38.637764 39.158497C 38.646049 38.330162 37.981335 37.651909 37.153 37.643497C 37.178497 37.643501 37.175499 37.643501 37.153 37.637497C 37.077999 37.614998 36.775002 37.526501 36.451 37.175499C 36.120998 36.817001 35.671001 36.080498 35.551003 34.603001C 35.780437 32.460926 35.088963 30.322248 33.648903 28.719955C 32.208839 27.117662 30.155825 26.202667 28.001499 26.202999ZM 28 42.034C 25.273001 42.034 22.727499 42.993999 20.674 44.4175C 20.405907 44.604622 20.289917 44.943851 20.387318 45.255943C 20.484718 45.568039 20.773064 45.781078 21.1 45.782501L 34.900002 45.782501C 35.220928 45.782333 35.506187 45.577991 35.609604 45.274185C 35.713017 44.970375 35.611675 44.634434 35.357502 44.438499C 33.2635 42.828999 30.6985 42.034 28 42.034ZM 35.709999 25.171001L 38.252499 23.7055L 42.474998 26.141499C 43.287998 26.629002 44.263 25.816 43.775501 25.004501L 41.987503 20.944L 45.2365 17.857C 45.520607 17.593252 45.613083 17.181843 45.469166 16.821888C 45.325249 16.461931 44.974628 16.227678 44.587002 16.2325L 41.176003 16.2325L 39.225998 12.172C 38.902 11.533 37.603001 11.5225 37.2775 12.172L 36.6805 13.417C 37.850498 14.548 38.165501 16.513 36.702999 17.976999L 36.660999 18.015999L 34.559498 20.012501L 35.709999 22.6255L 35.739998 22.695999C 36.062275 23.491648 36.051464 24.383398 35.709999 25.171001ZM 18.7225 12.172L 19.4035 13.5925C 18.3745 14.743 18.161499 16.5865 19.552 17.9755L 19.592501 18.015999L 21.694 20.012501L 20.587 22.529499C 20.077 23.491001 20.136999 24.502001 20.542 25.316502L 17.746 23.7055L 13.525 26.139999C 12.712 26.627501 11.7385 25.814501 12.2245 25.003L 14.0125 20.942501L 10.7635 17.857C 10.479393 17.593252 10.38692 17.181843 10.530836 16.821888C 10.674751 16.461931 11.025371 16.227678 11.413 16.2325L 14.824 16.2325L 16.774 12.172C 17.098 11.533 18.396999 11.5225 18.723999 12.172Z"></path></g></g></g><g id="g-root-ic_down_hzmznrxmuy2w-fill" data-item-order="-1296" transform="translate(116, 302)"><g id="ic_down_hzmznrxmuy2w-fill" stroke="none" fill="#f4f4f4"><g><path d="M 16.375 16.135C 17.410534 16.135 18.25 16.974466 18.25 18.01C 18.25 19.045534 17.410534 19.885 16.375 19.885C 15.339466 19.885 14.5 19.045534 14.5 18.01C 14.495963 17.511494 14.692211 17.03223 15.044721 16.67972C 15.39723 16.327211 15.876493 16.130962 16.375 16.135M 10 10M 25.57 39.34L 22.57 36.34C 22.24827 36.018669 21.764738 35.922615 21.344614 36.096569C 20.924492 36.270527 20.6504 36.68029 20.650002 37.135002L 20.65 39.010002L 18.025 39.010002C 17.817894 39.010002 17.65 38.842106 17.65 38.635002L 17.65 34.689999C 17.65 34.06868 17.14632 33.564999 16.525 33.564999C 15.90368 33.564999 15.400001 34.06868 15.400001 34.690002L 15.4 38.635002C 15.400001 40.084747 16.575253 41.260002 18.025002 41.260002L 20.65 41.260002L 20.65 43.135002C 20.651512 43.595219 20.9296 44.009392 21.355 44.184998C 21.488272 44.238899 21.631311 44.264442 21.775 44.260002C 22.074629 44.266762 22.363239 44.146961 22.57 43.93L 25.57 40.93C 25.784422 40.721069 25.905355 40.434383 25.905355 40.135002C 25.905355 39.835621 25.784422 39.548935 25.57 39.340004ZM 39.25 32.005001C 43.75 32.005001 45.849998 30.775002 45.849998 30.400002C 45.849998 30.025002 43.795002 28.809999 39.25 28.809999C 34.704998 28.809999 32.650002 30.025002 32.650002 30.400002C 32.650002 30.775002 34.704998 32.005001 39.25 32.005001ZM 39.25 36.550003C 41.547211 36.648258 43.841183 36.291416 46 35.5L 46 32.215C 43.880146 33.161564 41.569511 33.603153 39.25 33.505001C 36.930489 33.603153 34.619854 33.161564 32.5 32.215L 32.5 35.5C 34.658817 36.291416 36.952789 36.648258 39.25 36.549999ZM 39.25 42.73C 36.961906 42.774971 34.681847 42.445633 32.5 41.755001L 32.5 43.84C 32.5 45.025002 35.5 46 39.25 46C 43 46 46 45.025002 46 43.84L 46 41.755001C 43.818157 42.445633 41.538097 42.774971 39.25 42.730003ZM 46 40.119999L 46 37.119999C 43.818157 37.810631 41.538097 38.139973 39.25 38.095001C 36.961906 38.139973 34.681847 37.810631 32.5 37.119999L 32.5 40.119999C 34.652271 40.940857 36.948204 41.318413 39.25 41.23C 41.551796 41.318413 43.847725 40.940857 46 40.119999ZM 27.639999 15.085L 23.575001 11.02C 22.929173 10.366752 22.048599 9.999397 21.129999 10L 13.45 10C 11.544618 10 10 11.544618 10 13.45L 10 28.135C 10 30.040382 11.544618 31.584999 13.45 31.584999L 25.195 31.585001C 27.102823 31.585018 28.651741 30.042807 28.66 28.134998L 28.66 17.5C 28.654278 16.591471 28.287283 15.722558 27.639999 15.085ZM 13.45 13L 21.130001 13C 21.249048 13 21.362896 13.048792 21.445 13.135L 25.525002 17.200001C 25.606064 17.291542 25.65366 17.407888 25.66 17.530001L 25.66 23.5L 23.5 21.084999C 23.250755 20.809172 22.896755 20.651234 22.525 20.65C 22.151592 20.643337 21.794472 20.80267 21.549999 21.084999L 18.385 24.700001L 20.41 26.41C 20.728945 26.675097 20.772596 27.148556 20.5075 27.467499C 20.242403 27.786446 19.768944 27.830097 19.449999 27.565001L 15.025 23.965C 14.503232 23.550705 13.753162 23.595968 13.285 24.07L 13 24.34L 13 13.45C 13.007791 13.204772 13.204772 13.007791 13.45 13Z"></path></g></g></g><g id="g-root-ic_2_1uua03rxmtjpr-fill" data-item-order="-1296" transform="translate(284, 122)"><g id="ic_2_1uua03rxmtjpr-fill" stroke="none" fill="#f4f4f4"><g><path d="M 41.521 14.2345C 39.095497 14.2345 37.402 13.1125 37.402 12.118C 37.402 11.122 39.097 10 41.521 10C 43.945 10 45.628002 11.122 45.628002 12.118C 45.628002 13.1125 43.945 14.2345 41.521 14.2345ZM 28.785999 15.55C 28.785999 14.721573 29.457573 14.05 30.285999 14.05L 33.005501 14.05C 33.833927 14.05 34.505501 14.721573 34.505501 15.55C 34.505501 16.378428 33.833927 17.049999 33.005501 17.049999L 31.785999 17.049999L 31.785999 26.5L 33.005501 26.5C 33.833927 26.5 34.505501 27.171572 34.505501 28C 34.505501 28.828428 33.833927 29.5 33.005501 29.5L 31.785999 29.5L 31.785999 38.949997L 33.005501 38.949997C 33.833927 38.949997 34.505501 39.621574 34.505501 40.449997C 34.505501 41.278427 33.833927 41.949997 33.005501 41.949997L 30.285999 41.949997C 29.457573 41.949997 28.785999 41.278427 28.785999 40.449997L 28.785999 29.5L 26.889999 29.5C 26.061573 29.5 25.389999 28.828428 25.389999 28C 25.389999 27.171572 26.061573 26.5 26.889999 26.5L 28.787498 26.5L 28.787498 15.55ZM 22.864 33.857498C 22.864 35.142998 20.0485 36.188499 16.588001 36.188499C 13.126 36.188499 10.312 35.142998 10.312 33.857498L 10.312 31.077999C 10.312 31.012001 10.327 30.948999 10.3555 30.890499C 10.381696 30.834652 10.420765 30.785816 10.4695 30.747997C 10.577011 30.689306 10.706988 30.689306 10.8145 30.747997C 12.621362 31.582693 14.598833 31.981886 16.587999 31.9135C 18.577168 31.981886 20.554638 31.582693 22.3615 30.747999C 22.468616 30.68985 22.597881 30.68985 22.704998 30.747997C 22.754282 30.785641 22.793877 30.834492 22.820499 30.890499C 22.847752 30.949341 22.86256 31.013172 22.864 31.077999L 22.864 33.857498ZM 16.588001 30.330999C 20.0485 30.330999 22.864 29.2855 22.864 28L 22.864 25.219C 22.86265 25.154472 22.847296 25.091007 22.819 25.033001C 22.792805 24.977152 22.753735 24.928316 22.704998 24.890499C 22.599457 24.824543 22.465542 24.824543 22.360001 24.890499C 20.551317 25.717976 18.576052 26.116827 16.588001 26.056C 14.598943 26.11729 12.622598 25.71843 10.813 24.890499C 10.70782 24.825165 10.57468 24.825165 10.4695 24.890499C 10.420765 24.928316 10.381696 24.977152 10.3555 25.032999C 10.327204 25.091007 10.31185 25.154472 10.3105 25.219L 10.3105 28C 10.3105 29.2855 13.126 30.330999 16.588001 30.330999ZM 22.864 22.140999C 22.864 23.429501 20.052999 24.472 16.588001 24.472C 13.1215 24.472 10.312 23.429501 10.312 22.1425C 10.312 20.855499 13.12 19.809999 16.588001 19.809999C 20.052999 19.809999 22.864 20.854 22.864 22.140999ZM 45.628002 15.0295C 45.626904 14.934482 45.574821 14.847383 45.491638 14.801447C 45.408459 14.755509 45.307003 14.757821 45.225998 14.8075C 44.101738 15.458811 42.819988 15.78833 41.521004 15.76C 40.221817 15.790041 38.939606 15.460404 37.815998 14.8075C 37.730137 14.759981 37.625862 14.759981 37.539997 14.8075C 37.456589 14.855619 37.404289 14.943733 37.402 15.04L 37.402 18.470499C 37.402 19.465 39.097 20.588501 41.521 20.588501C 43.945 20.588501 45.628002 19.529501 45.628002 18.470499L 45.628002 15.0295ZM 45.5905 27.599499C 45.614414 27.639425 45.62735 27.684963 45.627998 27.731499L 45.628002 31.172501C 45.628002 32.231499 43.945 33.290501 41.521 33.290501C 39.095497 33.290501 37.402 32.167 37.402 31.172501L 37.402 27.742001C 37.404289 27.645733 37.456589 27.557621 37.540001 27.509499C 37.625542 27.462812 37.728954 27.462812 37.814499 27.509499C 38.939499 28.161999 40.220497 28.492001 41.519501 28.462C 42.81918 28.490538 44.101601 28.160461 45.225998 27.507999C 45.286167 27.471195 45.358562 27.460001 45.427036 27.476908C 45.495514 27.493814 45.554375 27.53742 45.5905 27.598ZM 45.628002 40.441002C 45.626904 40.345982 45.574821 40.258881 45.491638 40.212944C 45.408459 40.167007 45.307003 40.169319 45.225998 40.219002C 44.101738 40.870312 42.819988 41.199829 41.521004 41.171501C 40.221817 41.201542 38.939606 40.871902 37.815998 40.219002C 37.730061 40.171764 37.625938 40.171764 37.539997 40.219002C 37.456589 40.26712 37.404289 40.355232 37.402 40.4515L 37.402 43.882C 37.402 44.878002 39.097 46 41.521 46C 43.945 46 45.628002 44.941002 45.628002 43.882L 45.628002 40.441002ZM 37.402 24.82C 37.402 25.814501 39.097 26.936501 41.521 26.936501C 43.945 26.936501 45.628002 25.814501 45.628002 24.82C 45.628002 23.823999 43.945 22.702 41.521 22.702C 39.095497 22.702 37.402 23.823999 37.402 24.82ZM 41.521 39.647499C 39.095497 39.647499 37.402 38.525501 37.402 37.529503C 37.402 36.535 39.097 35.411499 41.521 35.411499C 43.945 35.411499 45.628002 36.535 45.628002 37.529503C 45.628002 38.525501 43.945 39.647499 41.521 39.647499Z"></path></g></g></g><g id="g-root-ic_shar_1d2diivxmpcln-fill" data-item-order="-1296" transform="translate(956, 122)"><g id="ic_shar_1d2diivxmpcln-fill" stroke="none" fill="#f4f4f4"><g><path d="M 20.875 26.5L 12.625 26.5C 11.17866 26.508194 10.008195 27.678659 10 29.125L 10 43.375C 10.008195 44.821339 11.17866 45.991806 12.625 46L 20.875 46C 22.324747 46.000004 23.5 44.824749 23.5 43.375004L 23.5 29.125C 23.5 27.675255 22.324747 26.5 20.875 26.500002ZM 12.625 28.75L 20.875 28.75C 21.082108 28.75 21.25 28.917892 21.25 29.125L 21.25 40L 12.25 40L 12.25 29.200001C 12.227186 29.088354 12.256374 28.972395 12.329325 28.884853C 12.402275 28.797314 12.511071 28.747692 12.625 28.75ZM 43.375 10L 32.125 10C 30.678659 10.008195 29.508194 11.17866 29.5 12.625L 29.5 23.125C 29.508194 24.571339 30.678659 25.741804 32.125 25.75L 43.375 25.75C 44.821339 25.741804 45.991806 24.571339 46 23.125L 46 12.625C 45.991806 11.17866 44.821339 10.008195 43.375 10ZM 38.5 15.355L 38.5 18.355L 31.75 18.355L 31.75 15.355ZM 40.75 15.355L 43.75 15.355L 43.75 18.355L 40.75 18.355ZM 31.75 23.125L 31.75 20.575001L 38.5 20.575001L 38.5 23.5L 32.125 23.5C 31.917892 23.5 31.75 23.332108 31.75 23.125ZM 43.375 23.5L 40.779999 23.5L 40.779999 20.575001L 43.779999 20.575001L 43.779999 23.125C 43.780334 23.229879 43.736736 23.330107 43.659782 23.401361C 43.582825 23.472618 43.479546 23.508392 43.375 23.5ZM 27.715 13.555L 24.34 10.315C 24.018038 10.000672 23.53817 9.911807 23.125 10.09C 22.707836 10.264906 22.436005 10.672655 22.434999 11.125L 22.434999 13.24L 21.309999 13.24C 18.256229 13.198188 15.742494 15.631485 15.684999 18.684999L 15.684999 19.18L 13.434999 19.18C 12.97634 19.180294 12.563782 19.459 12.392303 19.884398C 12.220825 20.309795 12.324765 20.796703 12.655 21.115L 16 24.355C 16.439226 24.79368 17.150774 24.79368 17.59 24.355001L 20.965 21.115C 21.295235 20.796703 21.399176 20.309795 21.227697 19.884398C 21.056217 19.459 20.64366 19.180294 20.185001 19.18L 17.934999 19.18L 17.934999 18.684999C 17.992161 16.874084 19.498671 15.447921 21.310001 15.49L 22.434999 15.49L 22.434999 17.605C 22.436005 18.057344 22.707836 18.465096 23.125 18.639999C 23.243587 18.692255 23.370613 18.72274 23.5 18.73C 23.791571 18.73304 24.072311 18.619665 24.280001 18.415001L 27.655001 15.175C 27.886946 14.973564 28.025036 14.68501 28.036407 14.378016C 28.047775 14.071021 27.93141 13.773042 27.715 13.555Z"></path></g></g></g><g id="g-root-ic_pers_18hk7pjxms4qt-fill" data-item-order="-1296" transform="translate(620, 182)"><g id="ic_pers_18hk7pjxms4qt-fill" stroke="none" fill="#f4f4f4"><g><path d="M 36.419502 19.7185C 41.389 19.7185 45.419502 17.702499 45.419502 15.2185C 45.419502 12.733 41.389 10.7185 36.419502 10.7185C 31.4485 10.7185 27.4195 12.733 27.4195 15.2185C 27.4195 17.702499 31.4485 19.7185 36.419502 19.7185ZM 30.895 32.286999C 32.422001 32.873501 34.3405 33.216999 36.419502 33.216999C 41.369499 33.216999 45.419502 31.267 45.419502 28.716999L 45.419502 25.685499C 45.028 25.970501 44.605 26.23 44.163998 26.458C 42.114998 27.518499 39.371498 28.125999 36.419502 28.125999C 34.4305 28.125999 32.537498 27.849998 30.887501 27.346001C 31.2115 27.901001 31.397501 28.547501 31.397501 29.236C 31.397501 29.8465 31.252001 30.421001 30.993999 30.929501C 31.053116 31.384039 31.019436 31.845848 30.895 32.286999ZM 36.419502 21.967001C 39.178001 21.967001 41.786499 21.411999 43.788998 20.411499C 44.338001 20.136999 44.899002 19.796501 45.419502 19.386999L 45.419502 22.2055C 45.179497 22.946499 44.470001 23.743 43.119999 24.442001C 41.461002 25.3015 39.091 25.856501 36.419502 25.856501C 33.746502 25.856501 31.376501 25.3015 29.717501 24.442001C 28.3675 23.743 27.6565 22.946499 27.4195 22.2055L 27.4195 19.3855C 27.938499 19.796501 28.4995 20.136999 29.0485 20.411499C 31.051001 21.4135 33.6595 21.9685 36.419502 21.9685ZM 19.906 39.550003C 24.064001 39.550003 27.646 42.274002 28.9375 46.001499L 10.732 46.001499C 12.022 42.274002 15.7495 39.551498 19.906 39.551498ZM 12.6355 32.491001C 13.483 35.650002 16.33 38.0485 19.761999 38.0485C 23.258499 38.0485 26.128 35.7145 26.921501 32.491001L 23.762501 32.491001C 23.089001 34.017998 21.577 35.0485 19.761999 35.0485C 18.052 35.0485 16.5355 34.003002 15.817 32.491001L 12.637 32.491001ZM 19.306 19.2805C 20.085312 19.280863 20.734539 19.877941 20.799999 20.654501L 20.799999 24.214001C 20.800001 24.835321 21.30368 25.339001 21.925001 25.339001C 22.546322 25.339001 23.049999 24.835321 23.049999 24.214001L 23.049999 21.882999C 25.242462 23.031681 26.655426 25.262917 26.7565 27.736L 27.647501 27.736C 28.475927 27.736 29.147501 28.407574 29.147501 29.236C 29.147501 30.064426 28.475927 30.736 27.647501 30.736L 11.878 30.736C 11.049573 30.736 10.378 30.064426 10.378 29.236C 10.378 28.407574 11.049573 27.736 11.878 27.736L 12.7705 27.736C 12.973 24.7495 15.025 22.201 17.806 21.3715L 17.806 20.778999C 17.806 19.950573 18.477573 19.278999 19.306 19.278999Z"></path></g></g></g><g id="g-root-ic_cog_va4nxmtjbi-fill" data-item-order="-1296" transform="translate(452, 242)"><g id="ic_cog_va4nxmtjbi-fill" stroke="none" fill="#f4f4f4"><g><path d="M 44.5 25L 41.5 25C 41.162453 24.998106 40.86776 24.770947 40.779999 24.445C 40.578506 23.61248 40.317844 22.795403 40 22C 39.893051 21.716045 39.957069 21.395977 40.164997 21.174999L 42.324997 19C 42.906586 18.414944 42.906586 17.470057 42.324997 16.885L 39.130001 13.675C 38.544945 13.093414 37.600056 13.093414 37.014999 13.675L 34.855 15.835C 34.636757 16.071074 34.290413 16.137913 34 16C 33.188431 15.676327 32.356674 15.405756 31.509998 15.19C 31.212233 15.089559 31.008656 14.814132 31 14.5L 31 11.5C 31 10.671573 30.328428 10 29.5 10L 26.5 10C 25.671572 10 25 10.671573 25 11.5L 25 14.5C 24.998106 14.837549 24.770947 15.132241 24.445 15.22C 23.61248 15.421494 22.795403 15.682157 22 16C 21.716045 16.106945 21.395977 16.042931 21.174999 15.834999L 19 13.675C 18.414944 13.093414 17.470057 13.093414 16.885 13.675L 13.675 16.869999C 13.391031 17.151649 13.231302 17.535044 13.231302 17.934999C 13.231302 18.334957 13.391031 18.718349 13.675 19L 15.835 21.130001C 16.061365 21.359692 16.126547 21.703375 16 22C 15.664808 22.80883 15.389076 23.641041 15.175 24.49C 15.076501 24.782787 14.808559 24.985233 14.5 25L 11.5 25C 10.671573 25 10 25.671572 10 26.5L 10 29.5C 10 30.328428 10.671573 31 11.5 31L 14.5 31C 14.837549 31.001894 15.132241 31.229053 15.22 31.555C 15.421494 32.38752 15.682157 33.204597 16 34C 16.106945 34.283955 16.042931 34.604019 15.834999 34.824997L 13.675 37C 13.093414 37.585056 13.093414 38.529945 13.675 39.114998L 16.869999 42.310001C 17.455055 42.891586 18.399944 42.891586 18.985001 42.310001L 21.130001 40.150002C 21.358984 39.920826 21.707493 39.860741 22 40C 22.80883 40.33519 23.641041 40.610924 24.49 40.825001C 24.782787 40.9235 24.985233 41.191441 25 41.5L 25 44.5C 25 45.328426 25.671572 46 26.5 46L 29.5 46C 30.328428 46 31 45.328426 31 44.5L 31 41.5C 31.001894 41.162453 31.229053 40.86776 31.555 40.779999C 32.38752 40.578506 33.204597 40.317844 34 40C 34.27903 39.89183 34.595516 39.956299 34.809998 40.164997L 37 42.324997C 37.585056 42.906586 38.529945 42.906586 39.114998 42.324997L 42.310001 39.130001C 42.891586 38.544945 42.891586 37.600056 42.310001 37.014999L 40.150002 34.869999C 39.928776 34.636959 39.869587 34.293663 39.999996 34C 40.33519 33.19117 40.610924 32.358959 40.825001 31.51C 40.9235 31.217213 41.191441 31.014767 41.5 31L 44.5 31C 45.328426 31 46 30.328428 46 29.5L 46 26.5C 46 25.671572 45.328426 25 44.5 25ZM 32.5 21.805L 28 21.805C 27.382057 21.813078 26.883078 22.312056 26.875 22.93L 26.875 26.305L 29.125 26.305C 29.746321 26.305 30.25 26.80868 30.25 27.43C 30.25 28.051321 29.746321 28.555 29.125 28.555L 26.875 28.555L 26.875 35.305C 26.875 35.926323 26.371321 36.43 25.75 36.43C 25.128681 36.43 24.625 35.926323 24.625 35.305L 24.625 28.555L 23.5 28.555C 22.878681 28.555 22.375 28.051321 22.375 27.43C 22.375 26.80868 22.878681 26.305 23.5 26.305L 24.625 26.305L 24.625 22.93C 24.625 21.06604 26.13604 19.555 28 19.555L 32.5 19.555C 33.121323 19.555 33.625 20.05868 33.625 20.68C 33.625 21.301321 33.121323 21.805 32.5 21.805Z"></path></g></g></g><g id="g-root-tx_machinel_1ly0irrxmpbsy-fill" data-item-order="0" transform="translate(410, 38)"><g id="tx_machinel_1ly0irrxmpbsy-fill" stroke="none" fill="#f4f4f4"><g><text style="font: 20px Roboto, sans-serif; white-space: pre;" font-size="20px" font-family="Roboto, sans-serif"><tspan x="13.26" y="33.2" dominant-baseline="ideographic">Machine Learning Pipeline Flow</tspan></text></g></g></g><g id="g-root-tx_implemen_dgp79jxmibk1-fill" data-item-order="0" transform="translate(902, 470)"><g id="tx_implemen_dgp79jxmibk1-fill" stroke="none" fill="#fff0e2"><g><text style="font: 15px Roboto, sans-serif; white-space: pre;" font-size="15px" font-family="Roboto, sans-serif"><tspan x="28.59" y="30.6" dominant-baseline="ideographic">Implementing the </tspan><tspan x="17.53" y="48.6" dominant-baseline="ideographic">model in a real-world </tspan><tspan x="64.04" y="66.6" dominant-baseline="ideographic">setting</tspan></text></g></g></g><g id="g-root-ic_48px_1ly0irrxmz5za-fill" data-item-order="0" transform="translate(284, 362)"></g><g id="g-root-ic_48px_91i32fxn0lc9-fill" data-item-order="0" transform="translate(452, 362)"></g><g id="g-root-ic_48px_dfg5xjxn1zpg-fill" data-item-order="0" transform="translate(620, 362)"></g><g id="g-root-ic_48px_hun6yvxn3fgv-fill" data-item-order="0" transform="translate(788, 362)"></g><g id="g-root-ic_48px_18k277rxmicxu-fill" data-item-order="0" transform="translate(956.5, 362)"></g><g id="g-root-tx_datainge_18lb287xmwemh-fill" data-item-order="0" transform="translate(62, 410)"><g id="tx_datainge_18lb287xmwemh-fill" stroke="none" fill="#4f91fc"><g><text style="font: bold 20px Roboto, sans-serif; white-space: pre;" font-weight="bold" font-size="20px" font-family="Roboto, sans-serif"><tspan x="16.86" y="33.2" dominant-baseline="ideographic">Data Ingestion</tspan></text></g></g></g><g id="g-root-tx_dataprep_qss3k7xmz5l8-fill" data-item-order="0" transform="translate(230, 410)"><g id="tx_dataprep_qss3k7xmz5l8-fill" stroke="none" fill="#1ac3fb"><g><text style="font: bold 20px Roboto, sans-serif; white-space: pre;" font-weight="bold" font-size="20px" font-family="Roboto, sans-serif"><tspan x="61.41" y="33.2" dominant-baseline="ideographic">Data </tspan><tspan x="16.95" y="57.2" dominant-baseline="ideographic">Preprocessing</tspan></text></g></g></g><g id="g-root-tx_featuree_znsmpzxn0lc7-fill" data-item-order="0" transform="translate(398, 410)"><g id="tx_featuree_znsmpzxn0lc7-fill" stroke="none" fill="#43dd93"><g><text style="font: bold 20px Roboto, sans-serif; white-space: pre;" font-weight="bold" font-size="20px" font-family="Roboto, sans-serif"><tspan x="35.9" y="33.2" dominant-baseline="ideographic">Feature </tspan><tspan x="16.38" y="57.2" dominant-baseline="ideographic">Engineering</tspan></text></g></g></g><g id="g-root-tx_modeltra_141qpl3xn1zpe-fill" data-item-order="0" transform="translate(566, 410)"><g id="tx_modeltra_141qpl3xn1zpe-fill" stroke="none" fill="#a6da37"><g><text style="font: bold 20px Roboto, sans-serif; white-space: pre;" font-weight="bold" font-size="20px" font-family="Roboto, sans-serif"><tspan x="14.76" y="33.2" dominant-baseline="ideographic">Model Training</tspan></text></g></g></g><g id="g-root-tx_modeleva_248avxn3fnx-fill" data-item-order="0" transform="translate(734, 410)"><g id="tx_modeleva_248avxn3fnx-fill" stroke="none" fill="#ffe711"><g><text style="font: bold 20px Roboto, sans-serif; white-space: pre;" font-weight="bold" font-size="20px" font-family="Roboto, sans-serif"><tspan x="35.92" y="33.2" dominant-baseline="ideographic">Model </tspan><tspan x="17.28" y="57.2" dominant-baseline="ideographic">Evaluation</tspan></text></g></g></g><g id="g-root-tx_modeldep_142zqx3xmibk0-fill" data-item-order="0" transform="translate(902, 410)"><g id="tx_modeldep_142zqx3xmibk0-fill" stroke="none" fill="#f79438"><g><text style="font: bold 20px Roboto, sans-serif; white-space: pre;" font-weight="bold" font-size="20px" font-family="Roboto, sans-serif"><tspan x="41.92" y="33.2" dominant-baseline="ideographic">Model </tspan><tspan x="16.17" y="57.2" dominant-baseline="ideographic">Deployment</tspan></text></g></g></g><g id="g-root-tx_collecti_hz0iknxmwemi-fill" data-item-order="0" transform="translate(62, 446)"><g id="tx_collecti_hz0iknxmwemi-fill" stroke="none" fill="#ebf2ff"><g><text style="font: 15px Roboto, sans-serif; white-space: pre;" font-size="15px" font-family="Roboto, sans-serif"><tspan x="32.47" y="30.6" dominant-baseline="ideographic">Collecting and </tspan><tspan x="16.7" y="48.6" dominant-baseline="ideographic">importing data into </tspan><tspan x="43.41" y="66.6" dominant-baseline="ideographic">the system</tspan></text></g></g></g><g id="g-root-tx_developi_qqa77rxn21ab-fill" data-item-order="0" transform="translate(566, 446)"><g id="tx_developi_qqa77rxn21ab-fill" stroke="none" fill="#f2ffd7"><g><text style="font: 15px Roboto, sans-serif; white-space: pre;" font-size="15px" font-family="Roboto, sans-serif"><tspan x="16.92" y="30.6" dominant-baseline="ideographic">Developing and </tspan><tspan x="18.19" y="48.6" dominant-baseline="ideographic">training the ML </tspan><tspan x="47.26" y="66.6" dominant-baseline="ideographic">model</tspan></text></g></g></g><g id="g-root-tx_cleaning_v9ujuvxmz6z1-fill" data-item-order="0" transform="translate(230, 470)"><g id="tx_cleaning_v9ujuvxmz6z1-fill" stroke="none" fill="#e5f8ff"><g><text style="font: 15px Roboto, sans-serif; white-space: pre;" font-size="15px" font-family="Roboto, sans-serif"><tspan x="30.74" y="30.6" dominant-baseline="ideographic">Cleaning and </tspan><tspan x="14.48" y="48.6" dominant-baseline="ideographic">preparing data for </tspan><tspan x="46.89" y="66.6" dominant-baseline="ideographic">analysis</tspan></text></g></g></g><g id="g-root-tx_creating_mcc4cnxn0mx4-fill" data-item-order="0" transform="translate(398, 470)"><g id="tx_creating_mcc4cnxn0mx4-fill" stroke="none" fill="#dffff0"><g><text style="font: 15px Roboto, sans-serif; white-space: pre;" font-size="15px" font-family="Roboto, sans-serif"><tspan x="18.47" y="30.6" dominant-baseline="ideographic">Creating new </tspan><tspan x="16.86" y="48.6" dominant-baseline="ideographic">features from </tspan><tspan x="19.4" y="66.6" dominant-baseline="ideographic">existing data</tspan></text></g></g></g><g id="g-root-tx_assessin_18gxqmfxn3fgu-fill" data-item-order="0" transform="translate(734, 470)"><g id="tx_assessin_18gxqmfxn3fgu-fill" stroke="none" fill="#fffbd5"><g><text style="font: 15px Roboto, sans-serif; white-space: pre;" font-size="15px" font-family="Roboto, sans-serif"><tspan x="15.18" y="30.6" dominant-baseline="ideographic">Assessing the </tspan><tspan x="36.37" y="48.6" dominant-baseline="ideographic">model's </tspan><tspan x="19.22" y="66.6" dominant-baseline="ideographic">performance</tspan></text></g></g></g><g id="g-root-ic_48px_8cz5zxmwdtv-fill" data-item-order="0" transform="translate(116, 362)"></g><g id="g-root-cp_6_g-6_me7jlzxmpcsm-stroke" data-item-order="-557270" transform="translate(875, 110)"><g id="cp_6_g-6_me7jlzxmpcsm-stroke" fill="none" stroke-linecap="round" stroke-linejoin="round" stroke-miterlimit="4" stroke="#2c2c2c" stroke-width="2"><g><path d="M 136.5037 52C 138.1093 48.3252 139 44.2666 139 40C 139 35.7334 138.1093 31.6748 136.5037 28L 157 28L 157 27C 157 25.8954 157.8954 25 159 25L 163 25L 163 55L 159 55C 157.8954 55 157 54.1046 157 53L 157 52L 136.5037 52ZM 81.4963 52L 61 52L 61 53C 61 54.1046 60.1046 55 59 55L 55 55L 55 25L 59 25C 60.1046 25 61 25.8954 61 27L 61 28L 81.4963 28C 79.8907 31.6748 79 35.7334 79 40C 79 44.2666 79.8907 48.3252 81.4963 52ZM 157 28L 157 52M 61 52L 61 28"></path></g></g><g id="cp_6_g-6_me7jlzxmpcsm-stroke" fill="none" stroke-linecap="round" stroke-linejoin="round" stroke-miterlimit="4" stroke="#2c2c2c" stroke-width="2"><g><path d="M 10 130L 10 126C 10 124.8954 10.8954 124 12 124L 13 124L 13 76L 12 76C 10.8954 76 10 75.1046 10 74L 10 70L 40 70L 40 74C 40 75.1046 39.1046 76 38 76L 37 76L 37 124L 38 124C 39.1046 124 40 124.8954 40 126L 40 130L 10 130ZM 13 124L 37 124M 13 76L 37 76"></path></g></g><g id="cp_6_g-6_me7jlzxmpcsm-stroke" fill="none" stroke-linecap="round" stroke-linejoin="round" stroke-miterlimit="4" stroke="#2c2c2c" stroke-width="2"><g><path d="M 13 52C 13 38.7452 23.7452 28 37 28L 49 28L 49 27C 49 25.8954 49.8954 25 51 25L 55 25L 55 55L 51 55C 49.8954 55 49 54.1046 49 53L 49 52L 41 52C 38.7909 52 37 53.7909 37 56L 37 64L 38 64C 39.1046 64 40 64.8954 40 66L 40 70L 10 70L 10 66C 10 64.8954 10.8954 64 12 64L 13 64L 13 52ZM 49 28L 49 52M 37 64L 13 64"></path></g></g><g id="cp_6_g-6_me7jlzxmpcsm-stroke" fill="none" stroke-linecap="round" stroke-linejoin="round" stroke-miterlimit="4" stroke="#2c2c2c" stroke-width="2"><g><path d="M 139 40C 139 56.5685 125.5685 70 109 70C 92.4315 70 79 56.5685 79 40C 79 23.4315 92.4315 10 109 10C 125.5685 10 139 23.4315 139 40Z"></path></g></g></g><g id="g-root-cp_5_g-5_hye1hjxmpdkz-stroke" data-item-order="-557266" transform="translate(707, 230)"><g id="cp_5_g-5_hye1hjxmpdkz-stroke" fill="none" stroke-linecap="round" stroke-linejoin="round" stroke-miterlimit="4" stroke="#2c2c2c" stroke-width="2"><g><path d="M 136.5037 112C 138.1093 108.3252 139 104.2666 139 100C 139 95.7334 138.1093 91.6748 136.5037 88L 157 88L 157 87C 157 85.8954 157.8954 85 159 85L 163 85L 163 115L 159 115C 157.8954 115 157 114.1046 157 113L 157 112L 136.5037 112ZM 81.4963 112L 61 112L 61 113C 61 114.1046 60.1046 115 59 115L 55 115L 55 85L 59 85C 60.1046 85 61 85.8954 61 87L 61 88L 81.4963 88C 79.8907 91.6748 79 95.7334 79 100C 79 104.2666 79.8907 108.3252 81.4963 112ZM 157 88L 157 112M 61 112L 61 88"></path></g></g><g id="cp_5_g-5_hye1hjxmpdkz-stroke" fill="none" stroke-linecap="round" stroke-linejoin="round" stroke-miterlimit="4" stroke="#2c2c2c" stroke-width="2"><g><path d="M 10 70L 10 66C 10 64.8954 10.8954 64 12 64L 13 64L 13 46L 12 46C 10.8954 46 10 45.1046 10 44L 10 40L 40 40L 40 44C 40 45.1046 39.1046 46 38 46L 37 46L 37 64L 38 64C 39.1046 64 40 64.8954 40 66L 40 70L 10 70ZM 13 64L 37 64M 13 46L 37 46"></path></g></g><g id="cp_5_g-5_hye1hjxmpdkz-stroke" fill="none" stroke-linecap="round" stroke-linejoin="round" stroke-miterlimit="4" stroke="#2c2c2c" stroke-width="2"><g><path d="M 178 70L 178 66C 178 64.8954 178.8954 64 180 64L 181 64L 181 16L 180 16C 178.8954 16 178 15.1046 178 14L 178 10L 208 10L 208 14C 208 15.1046 207.1046 16 206 16L 205 16L 205 64L 206 64C 207.1046 64 208 64.8954 208 66L 208 70L 178 70ZM 181 64L 205 64M 181 16L 205 16"></path></g></g><g id="cp_5_g-5_hye1hjxmpdkz-stroke" fill="none" stroke-linecap="round" stroke-linejoin="round" stroke-miterlimit="4" stroke="#2c2c2c" stroke-width="2"><g><path d="M 13 88C 13 101.2548 23.7452 112 37 112L 49 112L 49 113C 49 114.1046 49.8954 115 51 115L 55 115L 55 85L 51 85C 49.8954 85 49 85.8954 49 87L 49 88L 41 88C 38.7909 88 37 86.2091 37 84L 37 76L 38 76C 39.1046 76 40 75.1046 40 74L 40 70L 10 70L 10.000001 74C 10.000001 75.1046 10.8954 76 12 76L 13 76L 13 88ZM 49 112L 49 88M 37 76L 13 76"></path></g></g><g id="cp_5_g-5_hye1hjxmpdkz-stroke" fill="none" stroke-linecap="round" stroke-linejoin="round" stroke-miterlimit="4" stroke="#2c2c2c" stroke-width="2"><g><path d="M 205 88C 205 101.2548 194.2548 112 181 112L 169 112L 169 113C 169 114.1046 168.1046 115 167 115L 163 115L 163 85L 167 85C 168.1046 85 169 85.8954 169 87L 169 88L 177 88C 179.2091 88 181 86.2091 181 84L 181 76L 180 76C 178.8954 76 178 75.1046 178 74L 178 70L 208 70L 208 74C 208 75.1046 207.1046 76 206 76L 205 76L 205 88ZM 169 112L 169 88M 181 76L 205 76"></path></g></g><g id="cp_5_g-5_hye1hjxmpdkz-stroke" fill="none" stroke-linecap="round" stroke-linejoin="round" stroke-miterlimit="4" stroke="#2c2c2c" stroke-width="2"><g><path d="M 139 100C 139 116.5685 125.5685 130 109 130C 92.4315 130 79 116.5685 79 100C 79 83.4315 92.4315 70 109 70C 125.5685 70 139 83.4315 139 100Z"></path></g></g></g><g id="g-root-cp_4_g-4_dikjd3xmpede-stroke" data-item-order="-557262" transform="translate(539, 170)"><g id="cp_4_g-4_dikjd3xmpede-stroke" fill="none" stroke-linecap="round" stroke-linejoin="round" stroke-miterlimit="4" stroke="#2c2c2c" stroke-width="2"><g><path d="M 136.5037 52C 138.1093 48.3252 139 44.2666 139 40C 139 35.7334 138.1093 31.6748 136.5037 28L 157 28L 157 27C 157 25.8954 157.8954 25 159 25L 163 25L 163 55L 159 55C 157.8954 55 157 54.1046 157 53L 157 52L 136.5037 52ZM 81.4963 52L 61 52L 61 53C 61 54.1046 60.1046 55 59 55L 55 55L 55 25L 59 25C 60.1046 25 61 25.8954 61 27L 61 28L 81.4963 28C 79.8907 31.6748 79 35.7334 79 40C 79 44.2666 79.8907 48.3252 81.4963 52ZM 157 28L 157 52M 61 52L 61 28"></path></g></g><g id="cp_4_g-4_dikjd3xmpede-stroke" fill="none" stroke-linecap="round" stroke-linejoin="round" stroke-miterlimit="4" stroke="#2c2c2c" stroke-width="2"><g><path d="M 178 100L 178 96C 178 94.8954 178.8954 94 180 94L 181 94L 181 76L 180 76C 178.8954 76 178 75.1046 178 74L 178 70L 208 70L 208 74C 208 75.1046 207.1046 76 206 76L 205 76L 205 94L 206 94C 207.1046 94 208 94.8954 208 96L 208 100L 178 100ZM 181 94L 205 94M 181 76L 205 76"></path></g></g><g id="cp_4_g-4_dikjd3xmpede-stroke" fill="none" stroke-linecap="round" stroke-linejoin="round" stroke-miterlimit="4" stroke="#2c2c2c" stroke-width="2"><g><path d="M 13 52C 13 38.7452 23.7452 28 37 28L 49 28L 49 27C 49 25.8954 49.8954 25 51 25L 55 25L 55 55L 51 55C 49.8954 55 49 54.1046 49 53L 49 52L 41 52C 38.7909 52 37 53.7909 37 56L 37 64L 38 64C 39.1046 64 40 64.8954 40 66L 40 70L 10 70L 10 66C 10 64.8954 10.8954 64 12 64L 13 64L 13 52ZM 49 28L 49 52M 37 64L 13 64"></path></g></g><g id="cp_4_g-4_dikjd3xmpede-stroke" fill="none" stroke-linecap="round" stroke-linejoin="round" stroke-miterlimit="4" stroke="#2c2c2c" stroke-width="2"><g><path d="M 205 52C 205 38.7452 194.2548 28 181 28L 169 28L 169 27C 169 25.8954 168.1046 25 167 25L 163 25L 163 55L 167 55C 168.1046 55 169 54.1046 169 53L 169 52L 177 52C 179.2091 52 181 53.7909 181 56L 181 64L 180 64C 178.8954 64 178 64.8954 178 66L 178 70L 208 70L 208 66C 208 64.8954 207.1046 64 206 64L 205 64L 205 52ZM 169 28L 169 52M 181 64L 205 64"></path></g></g><g id="cp_4_g-4_dikjd3xmpede-stroke" fill="none" stroke-linecap="round" stroke-linejoin="round" stroke-miterlimit="4" stroke="#2c2c2c" stroke-width="2"><g><path d="M 139 40C 139 56.5685 125.5685 70 109 70C 92.4315 70 79 56.5685 79 40C 79 23.4315 92.4315 10 109 10C 125.5685 10 139 23.4315 139 40Z"></path></g></g></g><g id="g-root-cp_3_g-3_93dibrxmpc00-stroke" data-item-order="-557258" transform="translate(371, 200)"><g id="cp_3_g-3_93dibrxmpc00-stroke" fill="none" stroke-linecap="round" stroke-linejoin="round" stroke-miterlimit="4" stroke="#2c2c2c" stroke-width="2"><g><path d="M 136.5037 82C 138.1093 78.3252 139 74.2666 139 70C 139 65.7334 138.1093 61.6748 136.5037 58L 157 58L 157 57C 157 55.8954 157.8954 55 159 55L 163 55L 163 85L 159 85C 157.8954 85 157 84.1046 157 83L 157 82L 136.5037 82ZM 81.4963 82L 61 82L 61 83C 61 84.1046 60.1046 85 59 85L 55 85L 55 55L 59 55C 60.1046 55 61 55.8954 61 57L 61 58L 81.4963 58C 79.8907 61.6748 79 65.7334 79 70C 79 74.2666 79.8907 78.3252 81.4963 82ZM 157 58L 157 82M 61 82L 61 58"></path></g></g><g id="cp_3_g-3_93dibrxmpc00-stroke" fill="none" stroke-linecap="round" stroke-linejoin="round" stroke-miterlimit="4" stroke="#2c2c2c" stroke-width="2"><g><path d="M 10 40L 10 36C 10 34.8954 10.8954 34 12 34L 13 34L 13 16L 12 16C 10.8954 16 10 15.1046 10 14L 10 10L 40 10L 40 14C 40 15.1046 39.1046 16 38 16L 37 16L 37 34L 38 34C 39.1046 34 40 34.8954 40 36L 40 40L 10 40ZM 13 34L 37 34M 13 16L 37 16"></path></g></g><g id="cp_3_g-3_93dibrxmpc00-stroke" fill="none" stroke-linecap="round" stroke-linejoin="round" stroke-miterlimit="4" stroke="#2c2c2c" stroke-width="2"><g><path d="M 205 58C 205 71.2548 194.2548 82 181 82L 169 82L 169 83C 169 84.1046 168.1046 85 167 85L 163 85L 163 55L 167 55C 168.1046 55 169 55.8954 169 57L 169 58L 177 58C 179.2091 58 181 56.2091 181 54L 181 46L 180 46C 178.8954 46 178 45.1046 178 44L 178 40L 208 40L 208 44C 208 45.1046 207.1046 46 206 46L 205 46L 205 58ZM 169 82L 169 58M 181 46L 205 46"></path></g></g><g id="cp_3_g-3_93dibrxmpc00-stroke" fill="none" stroke-linecap="round" stroke-linejoin="round" stroke-miterlimit="4" stroke="#2c2c2c" stroke-width="2"><g><path d="M 13 58C 13 71.2548 23.7452 82 37 82L 49 82L 49 83C 49 84.1046 49.8954 85 51 85L 55 85L 55 55L 51 55C 49.8954 55 49 55.8954 49 57L 49 58L 41 58C 38.7909 58 37 56.2091 37 54L 37 46L 38 46C 39.1046 46 40 45.1046 40 44L 40 40L 10 40L 10.000001 44C 10.000001 45.1046 10.8954 46 12 46L 13 46L 13 58ZM 49 82L 49 58M 37 46L 13 46"></path></g></g><g id="cp_3_g-3_93dibrxmpc00-stroke" fill="none" stroke-linecap="round" stroke-linejoin="round" stroke-miterlimit="4" stroke="#2c2c2c" stroke-width="2"><g><path d="M 139 70C 139 86.5685 125.5685 100 109 100C 92.4315 100 79 86.5685 79 70C 79 53.4315 92.4315 40 109 40C 125.5685 40 139 53.4315 139 70Z"></path></g></g></g><g id="g-root-cp_2_g-2_7qi2vxmpcsu-stroke" data-item-order="-557254" transform="translate(203, 110)"><g id="cp_2_g-2_7qi2vxmpcsu-stroke" fill="none" stroke-linecap="round" stroke-linejoin="round" stroke-miterlimit="4" stroke="#2c2c2c" stroke-width="2"><g><path d="M 136.5037 52C 138.1093 48.3252 139 44.2666 139 40C 139 35.7334 138.1093 31.6748 136.5037 28L 157 28L 157 27C 157 25.8954 157.8954 25 159 25L 163 25L 163 55L 159 55C 157.8954 55 157 54.1046 157 53L 157 52L 136.5037 52ZM 81.4963 52L 61 52L 61 53C 61 54.1046 60.1046 55 59 55L 55 55L 55 25L 59 25C 60.1046 25 61 25.8954 61 27L 61 28L 81.4963 28C 79.8907 31.6748 79 35.7334 79 40C 79 44.2666 79.8907 48.3252 81.4963 52ZM 157 28L 157 52M 61 52L 61 28"></path></g></g><g id="cp_2_g-2_7qi2vxmpcsu-stroke" fill="none" stroke-linecap="round" stroke-linejoin="round" stroke-miterlimit="4" stroke="#2c2c2c" stroke-width="2"><g><path d="M 178 100L 178 96C 178 94.8954 178.8954 94 180 94L 181 94L 181 76L 180 76C 178.8954 76 178 75.1046 178 74L 178 70L 208 70L 208 74C 208 75.1046 207.1046 76 206 76L 205 76L 205 94L 206 94C 207.1046 94 208 94.8954 208 96L 208 100L 178 100ZM 181 94L 205 94M 181 76L 205 76"></path></g></g><g id="cp_2_g-2_7qi2vxmpcsu-stroke" fill="none" stroke-linecap="round" stroke-linejoin="round" stroke-miterlimit="4" stroke="#2c2c2c" stroke-width="2"><g><path d="M 10 130L 10 126C 10 124.8954 10.8954 124 12 124L 13 124L 13 76L 12 76C 10.8954 76 10 75.1046 10 74L 10 70L 40 70L 40 74C 40 75.1046 39.1046 76 38 76L 37 76L 37 124L 38 124C 39.1046 124 40 124.8954 40 126L 40 130L 10 130ZM 13 124L 37 124M 13 76L 37 76"></path></g></g><g id="cp_2_g-2_7qi2vxmpcsu-stroke" fill="none" stroke-linecap="round" stroke-linejoin="round" stroke-miterlimit="4" stroke="#2c2c2c" stroke-width="2"><g><path d="M 205 52C 205 38.7452 194.2548 28 181 28L 169 28L 169 27C 169 25.8954 168.1046 25 167 25L 163 25L 163 55L 167 55C 168.1046 55 169 54.1046 169 53L 169 52L 177 52C 179.2091 52 181 53.7909 181 56L 181 64L 180 64C 178.8954 64 178 64.8954 178 66L 178 70L 208 70L 208 66C 208 64.8954 207.1046 64 206 64L 205 64L 205 52ZM 169 28L 169 52M 181 64L 205 64"></path></g></g><g id="cp_2_g-2_7qi2vxmpcsu-stroke" fill="none" stroke-linecap="round" stroke-linejoin="round" stroke-miterlimit="4" stroke="#2c2c2c" stroke-width="2"><g><path d="M 13 52C 13 38.7452 23.7452 28 37 28L 49 28L 49 27C 49 25.8954 49.8954 25 51 25L 55 25L 55 55L 51 55C 49.8954 55 49 54.1046 49 53L 49 52L 41 52C 38.7909 52 37 53.7909 37 56L 37 64L 38 64C 39.1046 64 40 64.8954 40 66L 40 70L 10 70L 10 66C 10 64.8954 10.8954 64 12 64L 13 64L 13 52ZM 49 28L 49 52M 37 64L 13 64"></path></g></g><g id="cp_2_g-2_7qi2vxmpcsu-stroke" fill="none" stroke-linecap="round" stroke-linejoin="round" stroke-miterlimit="4" stroke="#2c2c2c" stroke-width="2"><g><path d="M 139 40C 139 56.5685 125.5685 70 109 70C 92.4315 70 79 56.5685 79 40C 79 23.4315 92.4315 10 109 10C 125.5685 10 139 23.4315 139 40Z"></path></g></g></g><g id="g-root-cp_1_g-1_1ut11xjxmpde5-stroke" data-item-order="-557250" transform="translate(80, 230)"><g id="cp_1_g-1_1ut11xjxmpde5-stroke" fill="none" stroke-linecap="round" stroke-linejoin="round" stroke-miterlimit="4" stroke="#2c2c2c" stroke-width="2"><g><path d="M 133 69.999999L 133 65.999999C 133 64.895399 133.8954 63.999999 135 63.999999L 136 63.999999L 136 15.999999L 135 15.999999C 133.8954 15.999999 133 15.104599 133 13.999999L 133 9.999999L 163 9.999999L 163 13.999999C 163 15.104599 162.1046 15.999999 161 15.999999L 160 15.999999L 160 63.999999L 161 63.999999C 162.1046 63.999999 163 64.895399 163 65.999999L 163 69.999999L 133 69.999999ZM 136 63.999999L 160 63.999999M 136 15.999999L 160 15.999999"></path></g></g><g id="cp_1_g-1_1ut11xjxmpde5-stroke" fill="none" stroke-linecap="round" stroke-linejoin="round" stroke-miterlimit="4" stroke="#2c2c2c" stroke-width="2"><g><path d="M 91.5037 112C 93.1093 108.3252 94 104.2666 94 100C 94 95.7334 93.1093 91.6748 91.5037 88L 112 88L 112 87C 112 85.8954 112.8954 85 114 85L 118 85L 118 115L 114 115C 112.8954 115 112 114.1046 112 113L 112 112L 91.5037 112ZM 36.4963 112L 16 112L 16 113C 16 114.1046 15.1046 115 14 115L 10 115L 10 85L 14 85C 15.1046 85 16 85.8954 16 87L 16 88L 36.4963 88C 34.8907 91.6748 34 95.7334 34 100C 34 104.2666 34.8907 108.3252 36.4963 112ZM 112 88L 112 112M 16 112L 16 88"></path></g></g><g id="cp_1_g-1_1ut11xjxmpde5-stroke" fill="none" stroke-linecap="round" stroke-linejoin="round" stroke-miterlimit="4" stroke="#2c2c2c" stroke-width="2"><g><path d="M 160 88.000004C 160 101.254804 149.2548 112.000004 136 112.000004L 124 112.000004L 124 113.000004C 124 114.104604 123.1046 115.000004 122 115.000004L 118 115.000004L 118 85.000004L 122 85.000004C 123.1046 85.000004 124 85.895404 124 87.000004L 124 88.000004L 132 88.000004C 134.2091 88.000004 136 86.209104 136 84.000004L 136 76.000004L 135 76.000004C 133.8954 76.000004 133 75.104604 133 74.000004L 133 70.000004L 163 70.000004L 163 74.000004C 163 75.104604 162.1046 76.000004 161 76.000004L 160 76.000004L 160 88.000004ZM 124 112.000004L 124 88.000004M 136 76.000004L 160 76.000004"></path></g></g><g id="cp_1_g-1_1ut11xjxmpde5-stroke" fill="none" stroke-linecap="round" stroke-linejoin="round" stroke-miterlimit="4" stroke="#2c2c2c" stroke-width="2"><g><path d="M 94 100C 94 116.5685 80.5685 130 64 130C 47.4315 130 34 116.5685 34 100C 34 83.4315 47.4315 70 64 70C 80.5685 70 94 83.4315 94 100Z"></path></g></g></g><g id="g-root-ic_star_qs5mh3xmqryk-stroke" data-item-order="-1296" transform="translate(788, 302)"></g><g id="g-root-ic_down_hzmznrxmuy2w-stroke" data-item-order="-1296" transform="translate(116, 302)"></g><g id="g-root-ic_2_1uua03rxmtjpr-stroke" data-item-order="-1296" transform="translate(284, 122)"></g><g id="g-root-ic_shar_1d2diivxmpcln-stroke" data-item-order="-1296" transform="translate(956, 122)"></g><g id="g-root-ic_pers_18hk7pjxms4qt-stroke" data-item-order="-1296" transform="translate(620, 182)"></g><g id="g-root-ic_cog_va4nxmtjbi-stroke" data-item-order="-1296" transform="translate(452, 242)"></g><g id="g-root-tx_machinel_1ly0irrxmpbsy-stroke" data-item-order="0" transform="translate(410, 38)"></g><g id="g-root-tx_implemen_dgp79jxmibk1-stroke" data-item-order="0" transform="translate(902, 470)"></g><g id="g-root-ic_48px_1ly0irrxmz5za-stroke" data-item-order="0" transform="translate(284, 362)"><g id="ic_48px_1ly0irrxmz5za-stroke" fill="none" stroke-linecap="round" stroke-linejoin="round" stroke-miterlimit="4" stroke="#e5f8ff" stroke-width="2"><g><path d="M 13.804202 25.133875C 13.804202 20.861275 15.841548 17.271431 19.758026 17.271431C 23.674599 17.271431 25.711899 20.861275 25.711899 25.133875L 25.711899 30.454525C 25.711899 34.727127 23.57905 38.411201 19.758026 38.411201C 15.937067 38.411201 13.804202 34.727127 13.804202 30.454525L 13.804202 25.133875ZM 30.123625 23.136551C 30.123625 19.671326 32.541924 17.271482 35.828201 17.271482C 41.279949 17.271482 43.139427 22.59145 39.565975 27.323799L 30.497499 38.063126L 42.963024 38.063126"></path></g></g></g><g id="g-root-ic_48px_91i32fxn0lc9-stroke" data-item-order="0" transform="translate(452, 362)"><g id="ic_48px_91i32fxn0lc9-stroke" fill="none" stroke-linecap="round" stroke-linejoin="round" stroke-miterlimit="4" stroke="#dffff0" stroke-width="2"><g><path d="M 13.804202 25.133875C 13.804202 20.861275 15.841548 17.271431 19.758026 17.271431C 23.674599 17.271431 25.711899 20.861275 25.711899 25.133875L 25.711899 30.454525C 25.711899 34.727127 23.57905 38.411201 19.758026 38.411201C 15.937067 38.411201 13.804202 34.727127 13.804202 30.454525L 13.804202 25.133875ZM 30.3409 22.801075C 30.251575 20.9944 31.36195 17.282455 36.298973 17.282455C 41.236 17.282455 41.992226 20.94805 41.821152 23.01775C 41.632526 25.299925 40.20385 27.630924 34.150524 27.630924C 39.785202 27.630924 42.344124 29.171501 42.344124 33.343376C 42.344124 36.9496 39.156624 38.417351 36.244148 38.417351C 34.151051 38.399502 29.964701 37.215324 29.964701 32.621651"></path></g></g></g><g id="g-root-ic_48px_dfg5xjxn1zpg-stroke" data-item-order="0" transform="translate(620, 362)"><g id="ic_48px_dfg5xjxn1zpg-stroke" fill="none" stroke-linecap="round" stroke-linejoin="round" stroke-miterlimit="4" stroke="#f2ffd7" stroke-width="2"><g><path d="M 13.804202 25.134251C 13.804202 20.86165 15.841548 17.271797 19.758026 17.271797C 23.674599 17.271797 25.711899 20.86165 25.711899 25.134251L 25.711899 30.454899C 25.711899 34.727501 23.57905 38.411575 19.758026 38.411575C 15.937067 38.411575 13.804202 34.727501 13.804202 30.454899L 13.804202 25.134251ZM 39.93235 38.4841L 39.93235 17.163452L 29.721176 32.303501L 43.986027 32.303501"></path></g></g></g><g id="g-root-ic_48px_hun6yvxn3fgv-stroke" data-item-order="0" transform="translate(788, 362)"><g id="ic_48px_hun6yvxn3fgv-stroke" fill="none" stroke-linecap="round" stroke-linejoin="round" stroke-miterlimit="4" stroke="#fffbd5" stroke-width="2"><g><path d="M 13.804202 25.134251C 13.804202 20.86165 15.841548 17.271797 19.758026 17.271797C 23.674599 17.271797 25.711899 20.86165 25.711899 25.134251L 25.711899 30.454899C 25.711899 34.727501 23.57905 38.411575 19.758026 38.411575C 15.937067 38.411575 13.804202 34.727501 13.804202 30.454899L 13.804202 25.134251ZM 42.769974 17.59045L 32.7841 17.59045L 31.74085 27.35815C 32.362675 26.73625 34.264824 25.492451 36.898827 25.492451C 39.978325 25.492451 42.859375 27.585024 42.570248 32.539299C 42.270851 37.670349 39.183998 38.42815 36.646374 38.42815C 33.958374 38.42815 31.303751 36.520676 31.0546 32.923752"></path></g></g></g><g id="g-root-ic_48px_18k277rxmicxu-stroke" data-item-order="0" transform="translate(956.5, 362)"><g id="ic_48px_18k277rxmicxu-stroke" fill="none" stroke-linecap="round" stroke-linejoin="round" stroke-miterlimit="4" stroke="#fff0e2" stroke-width="2"><g><path d="M 13.804202 25.134251C 13.804202 20.86165 15.841548 17.271797 19.758026 17.271797C 23.674599 17.271797 25.711899 20.86165 25.711899 25.134251L 25.711899 30.454899C 25.711899 34.727501 23.57905 38.411575 19.758026 38.411575C 15.937067 38.411575 13.804202 34.727501 13.804202 30.454899L 13.804202 25.134251ZM 40.313278 17.248413C 33.688076 17.248413 30.526676 21.536949 30.277901 28.107176L 30.277451 31.269325C 30.277451 35.417351 32.5816 38.083 36.423622 38.411648C 40.04245 38.551975 42.295074 35.710373 42.457302 31.593775C 42.560349 28.979874 41.233597 25.310875 37.160725 24.903551C 33.591549 24.5467 30.801849 26.918724 30.277901 29.48245"></path></g></g></g><g id="g-root-tx_datainge_18lb287xmwemh-stroke" data-item-order="0" transform="translate(62, 410)"></g><g id="g-root-tx_dataprep_qss3k7xmz5l8-stroke" data-item-order="0" transform="translate(230, 410)"></g><g id="g-root-tx_featuree_znsmpzxn0lc7-stroke" data-item-order="0" transform="translate(398, 410)"></g><g id="g-root-tx_modeltra_141qpl3xn1zpe-stroke" data-item-order="0" transform="translate(566, 410)"></g><g id="g-root-tx_modeleva_248avxn3fnx-stroke" data-item-order="0" transform="translate(734, 410)"></g><g id="g-root-tx_modeldep_142zqx3xmibk0-stroke" data-item-order="0" transform="translate(902, 410)"></g><g id="g-root-tx_collecti_hz0iknxmwemi-stroke" data-item-order="0" transform="translate(62, 446)"></g><g id="g-root-tx_developi_qqa77rxn21ab-stroke" data-item-order="0" transform="translate(566, 446)"></g><g id="g-root-tx_cleaning_v9ujuvxmz6z1-stroke" data-item-order="0" transform="translate(230, 470)"></g><g id="g-root-tx_creating_mcc4cnxn0mx4-stroke" data-item-order="0" transform="translate(398, 470)"></g><g id="g-root-tx_assessin_18gxqmfxn3fgu-stroke" data-item-order="0" transform="translate(734, 470)"></g><g id="g-root-ic_48px_8cz5zxmwdtv-stroke" data-item-order="0" transform="translate(116, 362)"><g id="ic_48px_8cz5zxmwdtv-stroke" fill="none" stroke-linecap="round" stroke-linejoin="round" stroke-miterlimit="4" stroke="#ebf2ff" stroke-width="2"><g><path d="M 30.881351 20.033051L 37.222675 17.637701L 37.222675 38.463249M 13.804202 25.133875C 13.804202 20.861275 15.841548 17.271431 19.758026 17.271431C 23.674599 17.271431 25.711899 20.861275 25.711899 25.133875L 25.711899 30.454525C 25.711899 34.727127 23.57905 38.411201 19.758026 38.411201C 15.937067 38.411201 13.804202 34.727127 13.804202 30.454525L 13.804202 25.133875Z"></path></g></g></g></g></g><path id="wdcz8cnyqjhu4" d="M65.283 12.757a.35.35 0 0 0 .584.157l5.203-5.141-6.183 3.523.396 1.461zm-2.216-11.7a.35.35 0 0 0-.522.305v3.111l3.276-1.868-2.754-1.548zm3.728 2.105l-4.25 2.421v2.445l6.391-3.644-2.141-1.222zm4.708 3.303a.35.35 0 0 0 0-.609l-1.592-.9-7.365 4.199v1.782a.35.35 0 0 0 .523.305l8.435-4.777z M44.542 2.513c0-.433.355-.783.792-.783s.792.35.792.783-.355.783-.792.783-.792-.35-.792-.783zm59.171 0c0-.433.355-.783.792-.783s.792.35.792.783-.355.783-.792.783-.792-.35-.792-.783zm-85.951 7.636h-1.27v-.487c-.276.201-.864.609-1.881.609-1.202 0-2.274-.794-2.137-2.078.118-1.106 1.153-1.584 1.848-1.727l2.17-.345c0-.539-.29-.956-1.064-1.006s-1.21.305-1.571 1.017l-1.124-.605c1.218-2.631 5.029-1.764 5.029.414v4.207zm-1.27-2.86c.006.396-.062 1.112-.819 1.59-.587.37-1.841.299-1.903-.395-.049-.555.461-.791.906-.898l1.816-.297zm72.662 2.86h-1.27v-.487c-.276.201-.864.609-1.881.609-1.202 0-2.274-.794-2.137-2.078.118-1.106 1.153-1.584 1.848-1.727l2.17-.345c0-.539-.29-.956-1.064-1.006s-1.21.305-1.571 1.017l-1.124-.605c1.218-2.631 5.029-1.764 5.029.414v4.207zm-1.27-2.86c.006.396-.062 1.112-.82 1.59-.587.37-1.841.299-1.903-.395-.049-.555.461-.791.906-.898l1.816-.297zM99.096 10.149H97.85v-8.45h1.246v4.895l2.68-2.559h1.738l-2.633 2.535 2.715 3.578h-1.556l-2.077-2.707-.867.844v1.863zm6.053-6.114h-1.255v6.113h1.255V4.035zm-59.2 0h-1.255v6.113h1.255V4.035zm5.584 6.113V1.697h1.255v2.695c.361-.346 1-.485 1.47-.485 1.452 0 2.477 1.082 2.457 2.448v3.792h-1.27v-3.68c0-.408-.214-1.339-1.315-1.339-.968 0-1.342.756-1.342 1.339v3.681h-1.255zm-4.76-4.894V4.039h.621a.45.45 0 0 0 .45-.45v-.855h1.251v1.305h1.309v1.215h-1.309v3.109c0 .293.105.664.648.664.365 0 .531-.035.736-.07v1.137s-.361.113-.857.113c-1.398 0-1.777-1.051-1.777-1.788V5.254h-1.071zM36.528 4.039h-1.394l2.191 6.106h1.125l1.234-3.918 1.238 3.918h1.129l2.188-6.106h-1.383l-1.359 3.93-1.256-3.93h-1.124l-1.242 3.957-1.348-3.957zM26.212 7.141c-.02 1.566 1.187 3.129 3.223 3.129 1.566 0 2.383-.918 2.734-1.719L31.172 8c-.315.399-.801 1.094-1.738 1.094-1.145 0-1.825-.781-1.891-1.52h4.625c.074-.284.148-.995-.03-1.559-.336-1.064-1.221-2.102-2.839-2.102s-3.088 1.152-3.088 3.227zm1.363-.75h3.348c-.055-.43-.566-1.301-1.623-1.301a1.79 1.79 0 0 0-1.725 1.301zm-8.758.75c.038 1.758 1.277 3.133 3.145 3.133 1.074 0 1.723-.477 1.961-.672v.547h1.242V1.703h-1.258v2.888c-.414-.36-1.062-.68-1.93-.68-1.91 0-3.198 1.473-3.16 3.23zm1.309-.08c0 1.119.723 1.978 1.836 1.978a1.88 1.88 0 0 0 1.94-1.904c0-1.371-1.011-1.99-1.972-1.99s-1.805.798-1.805 1.916zm76.683-.028C96.771 5.275 95.532 3.9 93.664 3.9c-1.074 0-1.723.477-1.961.672v-.547h-1.242v8.22h1.258V9.583c.414.36 1.063.68 1.93.68 1.91 0 3.198-1.473 3.16-3.23zm-1.309.08c0-1.119-.723-1.978-1.836-1.978a1.88 1.88 0 0 0-1.94 1.904c0 1.371 1.011 1.99 1.972 1.99S95.5 8.231 95.5 7.113zM106.441 10.173V4.036h1.254v.382c.361-.346 1-.485 1.47-.485 1.452 0 2.477 1.082 2.457 2.448v3.792h-1.27V6.492c0-.408-.214-1.339-1.315-1.339-.969 0-1.342.756-1.342 1.339v3.681h-1.254zm-30.383-.021V1.824h1.084l4.215 5.777V1.824h1.32v8.328h-1.094l-4.207-5.796v5.796h-1.319zM5.24 10.149H4V2.377h1.014l2.664 3.597 2.654-3.592h1.03v7.766h-1.256V4.762L7.678 8.068 5.24 4.742v5.407z" transform="translate(20, 578)" fill="#ababab88" stroke="none"></path></svg>